Coordinates
version=1
nRows=16
nColumns=36
inDegrees=yes

Units are S.I. units (second, meters, Newtons, ...)
If the header above contains a line with 'inDegrees', this indicates whether rotational values are in degrees (yes) or radians (no).

endheader
time	pelvis_tilt	pelvis_list	pelvis_rotation	pelvis_tx	pelvis_ty	pelvis_tz	hip_flexion_r	hip_adduction_r	hip_rotation_r	knee_angle_r	knee_angle_r_beta	ankle_angle_r	subtalar_angle_r	mtp_angle_r	hip_flexion_l	hip_adduction_l	hip_rotation_l	knee_angle_l	knee_angle_l_beta	ankle_angle_l	subtalar_angle_l	mtp_angle_l	lumbar_extension	lumbar_bending	lumbar_rotation	arm_flex_r	arm_add_r	arm_rot_r	elbow_flex_r	pro_sup_r	arm_flex_l	arm_add_l	arm_rot_l	elbow_flex_l	pro_sup_l
     10.02000000	    -11.06553173	      0.99676316	     -1.28848444	     -0.43489200	      0.82686126	     -0.62655028	     63.74619068	     -3.99216999	      4.61948781	     73.24080645	      1.27829322	     24.46569963	    -10.24220105	     -7.49999987	     61.58317672	     -3.16628275	     -1.29321412	     73.52794290	      1.28330470	     30.02654083	     -6.79248556	     -7.49999987	    -25.19117691	     -1.22682481	      2.98014562	      3.31230861	    -21.18639162	      1.78461131	     60.36177953	     92.29435135	     10.11680115	    -18.57931459	      4.67620125	     57.00628164	     92.34868041
     10.03000000	    -11.36448875	      1.12517379	     -1.30315473	     -0.43624760	      0.81940570	     -0.62603548	     65.06146075	     -3.90318754	      4.91418735	     74.65774292	      1.30302343	     24.84147553	    -10.31085467	     -7.49999987	     62.75725338	     -3.10163723	     -1.26557403	     74.73909968	      1.30444337	     30.42334944	     -6.90574169	     -7.49999987	    -25.29766375	     -1.40219469	      3.04417696	      3.19738059	    -21.70451881	      2.09954046	     61.09703820	     90.86072754	     10.00546119	    -18.87688779	      4.69716442	     58.06134389	     90.88569420
     10.04000000	    -11.31885139	      1.13025208	     -1.37757609	     -0.43786393	      0.81215405	     -0.62499744	     65.93088985	     -3.67742612	      5.12302135	     75.94914331	      1.32556261	     25.05074384	    -10.58344020	     -7.49999987	     63.57205388	     -3.18910744	     -1.18549734	     75.93374538	      1.32529387	     30.57304283	     -7.29444830	     -7.49999987	    -25.71507939	     -1.46707418	      3.27989298	      3.13512321	    -22.08139115	      1.81680424	     61.67303884	     93.40201489	     10.26659417	    -19.22624097	      5.06586078	     58.41845831	     93.44104187
     10.05000000	    -11.27239797	      1.20070445	     -1.37214795	     -0.43809748	      0.80502439	     -0.62461140	     66.80105386	     -3.58138309	      5.34103582	     77.26521228	      1.34853235	     25.30187177	    -10.81366235	     -7.49999987	     64.39070201	     -3.19394930	     -1.15156603	     77.11605314	      1.34592903	     30.81057857	     -7.51193638	     -7.49999987	    -26.12862409	     -1.53919475	      3.26710383	      3.12283825	    -22.40949196	      1.93577981	     62.14560465	     91.53888826	     10.04271841	    -19.41635552	      4.99970807	     59.11578507	     91.54895112
     10.06000000	    -11.25260432	      1.19345948	     -1.42280813	     -0.43807606	      0.79800474	     -0.62498145	     67.63387188	     -3.36738645	      5.53821671	     78.49586572	      1.37001131	     25.46461688	    -11.09137442	     -7.49999987	     65.19434149	     -3.28594498	     -1.06458228	     78.29664409	      1.36653423	     31.04907787	     -7.79340535	     -7.49999987	    -26.43267215	     -1.56559628	      3.33977514	      3.06811503	    -22.87534639	      2.31163994	     62.56510457	     90.93994987	      9.83780407	    -19.66536393	      5.23225828	     59.56614614	     90.90695361
     10.07000000	    -11.20825422	      1.24013422	     -1.47371891	     -0.43977467	      0.79060455	     -0.62525112	     68.45160536	     -3.18671380	      5.77651562	     79.73240069	      1.39159291	     25.67948537	    -11.27803924	     -7.49999987	     65.91200442	     -3.32729542	     -1.01724653	     79.44527142	      1.38658156	     31.32760595	     -8.06096902	     -7.49999987	    -26.73673979	     -1.61719498	      3.36714174	      3.02497437	    -23.13681686	      2.39483396	     62.88108272	     90.54814301	      9.56692553	    -19.82307606	      5.15992386	     59.98496399	     90.49014580
     10.08000000	    -11.20677128	      1.33601230	     -1.46115780	     -0.44263263	      0.78304007	     -0.62462555	     69.34789384	     -3.05554091	      6.06759546	     80.96495852	      1.41310510	     25.80014645	    -11.54793978	     -7.49999987	     66.68141065	     -3.28589586	     -0.98937581	     80.58191793	      1.40641979	     31.56220717	     -8.31608516	     -7.49999987	    -26.96975660	     -1.74751915	      3.31759171	      2.96054036	    -23.43013255	      2.61483003	     63.19643582	     90.41199915	      9.43894490	    -20.07999666	      5.30467300	     60.30288454	     90.33667377
     10.09000000	    -11.05157667	      1.32353335	     -1.40146323	     -0.44489243	      0.77608046	     -0.62376937	     70.06250682	     -2.94291789	      6.21768890	     82.16531490	      1.43405528	     25.89301701	    -11.80608571	     -7.49999987	     67.33650554	     -3.26763433	     -0.85168788	     81.73426272	      1.42653200	     31.67834373	     -8.67605851	     -7.49999987	    -27.34938809	     -1.72920270	      3.52574495	      2.59547663	    -23.48403913	      1.68215347	     63.61772587	     94.82633332	      9.58878557	    -20.11676301	      5.34340598	     60.26988826	     94.70559425
     10.10000000	    -10.99985701	      1.29591595	     -1.34812588	     -0.44641187	      0.76876764	     -0.62368378	     70.91366865	     -2.82415967	      6.34158449	     83.39279636	      1.45547887	     26.09081080	    -11.99136221	     -7.49999987	     68.15031300	     -3.28702084	     -0.69749444	     82.92320147	      1.44728289	     31.88227173	     -8.84850669	     -7.49999987	    -27.56922047	     -1.70216982	      3.47414002	      2.48707960	    -23.69252190	      1.93342776	     63.91922161	     93.65997135	      9.25916900	    -20.26114714	      5.36465874	     60.61117703	     93.54043453
     10.11000000	    -10.92848229	      1.37990897	     -1.35964344	     -0.44820508	      0.76108338	     -0.62433824	     71.77763554	     -2.66568274	      6.64071057	     84.60430642	      1.47662371	     26.18305328	    -12.24104197	     -7.49999987	     68.93226120	     -3.31801026	     -0.69809265	     84.08649458	      1.46758619	     31.98493545	     -9.14875240	     -7.49999987	    -27.76705273	     -1.80845395	      3.42437369	      2.42176575	    -23.94164397	      2.29225372	     64.06947224	     93.43994445	      9.12986302	    -20.52906231	      5.77853988	     60.72336966	     93.34344776
     10.12000000	    -10.85126145	      1.38373424	     -1.34818382	     -0.45018719	      0.75354435	     -0.62467788	     72.62473939	     -2.52827419	      6.81879633	     85.80223636	      1.49753153	     26.30075787	    -12.34661251	     -7.49999987	     69.73266534	     -3.35659771	     -0.60884812	     85.27840572	      1.48838896	     32.16671919	     -9.21563458	     -7.49999987	    -27.99869952	     -1.81960360	      3.56263699	      2.09836756	    -24.02868496	      1.84862703	     64.41955284	     95.07915836	      8.98742598	    -20.49898378	      5.80158593	     60.78269843	     94.99009998
     10.13000000	    -10.74030153	      1.38946098	     -1.32498840	     -0.45186938	      0.74690673	     -0.62382376	     73.39601881	     -2.39192983	      7.00044131	     86.92767218	      1.51717409	     26.40265299	    -12.52354434	     -7.49999987	     70.47256497	     -3.38312404	     -0.50938147	     86.41469560	      1.50822096	     32.38976287	     -9.26163332	     -7.49999987	    -28.26500571	     -1.84595646	      3.51000030	      1.93970583	    -24.22206518	      2.08862859	     64.78441012	     93.80414904	      8.71767210	    -20.58245010	      5.91168424	     60.93370140	     93.70317484
     10.14000000	    -10.32993190	      1.29598833	     -1.25232194	     -0.45383486	      0.74078345	     -0.62295277	     73.79148945	     -2.29017638	      7.05958077	     87.99157337	      1.53574267	     26.58377372	    -12.65008930	     -7.49999987	     70.91590541	     -3.38045535	     -0.28921560	     87.52066267	      1.52752373	     32.45030215	     -9.53992943	     -7.49999987	    -28.87496439	     -1.75721890	      3.45617901	      1.94991590	    -24.30139341	      2.08409072	     64.87159471	     92.69598665	      8.57684352	    -20.54940397	      5.91523731	     60.97463295	     92.60154102
     10.15000000	    -10.51790595	      1.39937807	     -1.32924287	     -0.45593996	      0.73268601	     -0.62278457	     74.93297622	     -2.06076300	      7.37962774	     89.12047986	      1.55544580	     26.59315958	    -12.79101539	     -7.49999987	     72.01202336	     -3.50852348	     -0.34157886	     88.68437344	      1.54783431	     32.70238777	     -9.38818818	     -7.49999987	    -28.69428037	     -1.95621424	      3.44912709	      1.64272599	    -24.45688570	      2.31555853	     65.25711992	     92.16541640	      8.20914322	    -20.52595969	      5.82649597	     61.01941640	     92.05665639
     10.16000000	    -10.34075353	      1.27596766	     -1.31831262	     -0.45724683	      0.72554435	     -0.62392262	     75.58816050	     -1.90346591	      7.40995352	     90.18847980	      1.57408592	     26.73542184	    -12.86639844	     -7.49999987	     72.72529245	     -3.58398997	     -0.14710565	     89.83737520	      1.56795799	     32.85280187	     -9.48765830	     -7.49999987	    -28.91448128	     -1.81911120	      3.49004966	      1.49343653	    -24.58325137	      2.36161386	     65.45989158	     91.62976948	      7.84908894	    -20.39443766	      5.72872645	     60.91856604	     91.51176549
     10.17000000	    -10.12963276	      1.40716281	     -1.36614080	     -0.45739025	      0.71934392	     -0.62493266	     76.24685055	     -1.78649804	      7.71958972	     91.27883400	      1.59311619	     26.66295686	    -13.10981259	     -7.49999987	     73.28937493	     -3.59328025	     -0.22455952	     90.89287500	      1.58637994	     32.89663444	     -9.66088421	     -7.49999987	    -29.10237074	     -2.01481657	      3.55865323	      1.23174141	    -24.65775773	      2.31357526	     65.54331804	     92.11092916	      7.65576208	    -20.19724207	      5.64902998	     60.70064971	     91.96804138
